<svg width="16" height="16" viewBox="0 0 16 16" fill="none" xmlns="http://www.w3.org/2000/svg">
<path d="M6 2H3.33333C2.59695 2 2 2.59695 2 3.33333V6C2 6.73638 2.59695 7.33333 3.33333 7.33333H6C6.73638 7.33333 7.33333 6.73638 7.33333 6V3.33333C7.33333 2.59695 6.73638 2 6 2Z" stroke="#111827" stroke-linecap="round" stroke-linejoin="round"/>
<path d="M4.6665 7.33325V9.99992C4.6665 10.3535 4.80698 10.6927 5.05703 10.9427C5.30708 11.1928 5.64622 11.3333 5.99984 11.3333H8.6665" stroke="#111827" stroke-linecap="round" stroke-linejoin="round"/>
<path d="M12.6665 8.66675H9.99984C9.26346 8.66675 8.6665 9.2637 8.6665 10.0001V12.6667C8.6665 13.4031 9.26346 14.0001 9.99984 14.0001H12.6665C13.4029 14.0001 13.9998 13.4031 13.9998 12.6667V10.0001C13.9998 9.2637 13.4029 8.66675 12.6665 8.66675Z" stroke="#111827" stroke-linecap="round" stroke-linejoin="round"/>
</svg>
