<svg width="16" height="16" viewBox="0 0 16 16" fill="none" xmlns="http://www.w3.org/2000/svg">
<path d="M3.99984 14.6668C3.64622 14.6668 3.30708 14.5264 3.05703 14.2763C2.80698 14.0263 2.6665 13.6871 2.6665 13.3335V2.66683C2.6665 2.31321 2.80698 1.97407 3.05703 1.72402C3.30708 1.47397 3.64622 1.3335 3.99984 1.3335H9.33317C9.54421 1.33316 9.75323 1.37457 9.94819 1.45534C10.1432 1.53612 10.3202 1.65467 10.4692 1.80416L12.8612 4.19617C13.0111 4.34517 13.13 4.5224 13.211 4.71761C13.292 4.91282 13.3335 5.12214 13.3332 5.3335V13.3335C13.3332 13.6871 13.1927 14.0263 12.9426 14.2763C12.6926 14.5264 12.3535 14.6668 11.9998 14.6668H3.99984Z" stroke="#0F6CBD" stroke-linejoin="round"/>
<path d="M9.3335 1.3335V4.66683C9.3335 4.84364 9.40373 5.01321 9.52876 5.13823C9.65378 5.26326 9.82335 5.3335 10.0002 5.3335H13.3335" stroke="#0F6CBD" stroke-linejoin="round"/>
<path d="M8 8V12" stroke="#0F6CBD" stroke-linejoin="round"/>
<path d="M10 10L8 8L6 10" stroke="#0F6CBD" stroke-linejoin="round"/>
</svg>
