<svg width="16" height="16" viewBox="0 0 16 16" fill="none" xmlns="http://www.w3.org/2000/svg">
<path d="M6 2H2.66667C2.29848 2 2 2.29848 2 2.66667V13.3333C2 13.7015 2.29848 14 2.66667 14H6C6.36819 14 6.66667 13.7015 6.66667 13.3333V2.66667C6.66667 2.29848 6.36819 2 6 2Z" stroke="#171717" stroke-linecap="round" stroke-linejoin="round"/>
<path d="M13.3333 2H9.99992C9.63173 2 9.33325 2.29848 9.33325 2.66667V6C9.33325 6.36819 9.63173 6.66667 9.99992 6.66667H13.3333C13.7014 6.66667 13.9999 6.36819 13.9999 6V2.66667C13.9999 2.29848 13.7014 2 13.3333 2Z" stroke="#171717" stroke-linecap="round" stroke-linejoin="round"/>
<path d="M13.3333 9.3335H9.99992C9.63173 9.3335 9.33325 9.63197 9.33325 10.0002V13.3335C9.33325 13.7017 9.63173 14.0002 9.99992 14.0002H13.3333C13.7014 14.0002 13.9999 13.7017 13.9999 13.3335V10.0002C13.9999 9.63197 13.7014 9.3335 13.3333 9.3335Z" stroke="#171717" stroke-linecap="round" stroke-linejoin="round"/>
</svg>
